<?xml version="1.0" standalone="no"?>
<!DOCTYPE svg PUBLIC "-//W3C//DTD SVG 20010904//EN"
 "http://www.w3.org/TR/2001/REC-SVG-20010904/DTD/svg10.dtd">
<svg version="1.0" xmlns="http://www.w3.org/2000/svg"
 width="260.000000pt" height="260.000000pt" viewBox="0 0 260.000000 260.000000"
 preserveAspectRatio="xMidYMid meet">
<metadata>
Created by potrace 1.11, written by Peter Selinger 2001-2013
</metadata>
<g transform="translate(0.000000,260.000000) scale(0.100000,-0.100000)"
fill="#000000" stroke="none">
<path d="M300 1550 l0 -140 83 0 c381 -1 527 -15 527 -50 0 -23 -62 -30 -266
-30 l-214 0 0 -205 0 -205 140 0 140 0 0 50 0 50 48 -31 c101 -64 138 -69 508
-69 l334 0 0 42 0 42 31 -42 c17 -23 39 -42 48 -42 27 0 91 45 137 97 l40 45
53 -71 c59 -79 62 -80 132 -35 45 28 92 84 121 144 18 37 22 68 26 173 l4 127
48 0 47 0 6 68 c4 37 7 102 7 145 l0 77 -585 0 -585 0 0 -30 0 -30 -37 19
c-71 35 -134 41 -468 41 l-325 0 0 -140z m732 100 c35 -10 72 -26 83 -34 30
-23 35 -20 35 19 l0 35 565 0 565 0 0 -119 c0 -132 1 -131 -77 -131 l-31 0 -4
-132 c-3 -112 -7 -141 -26 -183 -27 -59 -82 -119 -134 -146 l-37 -19 -59 79
-58 80 -35 -47 c-30 -41 -118 -112 -139 -112 -4 0 -27 26 -51 58 l-44 57 -3
-57 -3 -58 -323 0 c-369 0 -403 5 -509 79 l-57 40 0 -59 0 -60 -120 0 -120 0
0 184 0 185 221 3 c217 3 221 3 239 26 23 28 17 48 -21 67 -21 11 -66 15 -177
15 -82 0 -204 3 -270 7 l-122 6 0 119 0 118 324 0 c294 0 330 -2 388 -20z"/>
<path d="M1248 1653 l-88 -4 0 -45 0 -45 -34 26 c-19 15 -58 35 -86 46 -46 17
-79 19 -379 19 l-328 0 1 -42 c1 -24 3 -71 4 -105 l2 -62 269 -3 c256 -3 271
-4 298 -24 39 -29 41 -66 7 -93 -23 -18 -40 -21 -128 -21 -55 0 -152 -3 -213
-7 l-113 -6 0 -169 0 -169 108 3 107 3 3 72 3 73 34 -35 c48 -47 109 -81 180
-99 47 -13 121 -16 362 -16 l303 0 0 75 c0 41 3 75 8 75 4 -1 29 -32 57 -70
27 -39 54 -70 60 -70 32 0 117 80 140 131 10 21 21 36 26 34 4 -3 33 -41 63
-85 31 -44 60 -80 64 -80 13 0 67 37 96 66 16 16 41 54 55 84 23 49 26 70 29
193 l4 137 49 0 49 0 0 110 0 110 -462 -2 c-255 -1 -502 -4 -550 -5z m92 -348
l0 -135 -67 0 c-64 0 -199 23 -212 35 -3 3 1 10 9 15 92 52 135 103 146 172 7
39 12 41 97 46 l27 2 0 -135z m300 40 c0 -102 -13 -145 -49 -165 -11 -5 -22
-10 -25 -10 -3 0 -6 58 -6 129 0 138 0 139 53 140 l27 1 0 -95z m300 18 c0
-43 -5 -95 -10 -115 -10 -33 -41 -68 -62 -68 -5 0 -8 59 -8 130 l0 130 40 0
40 0 0 -77z"/>
<path d="M1237 1413 c-4 -3 -7 -15 -7 -25 0 -43 -60 -125 -125 -172 -18 -13
-16 -15 28 -21 26 -4 80 -8 119 -9 l73 -1 3 118 3 117 -44 0 c-24 0 -47 -3
-50 -7z m73 -113 l0 -100 -54 0 c-29 0 -67 3 -85 6 l-31 6 46 51 c27 30 50 67
57 94 10 38 15 43 39 43 l28 0 0 -100z"/>
<path d="M1580 1304 c0 -81 3 -113 11 -108 23 14 39 76 39 149 0 73 -1 75 -25
75 l-25 0 0 -116z m27 -11 c-2 -21 -4 -4 -4 37 0 41 2 58 4 38 2 -21 2 -55 0
-75z"/>
<path d="M1877 1423 c-11 -10 -8 -223 2 -223 27 0 41 47 41 137 0 84 -2 93
-18 93 -10 0 -22 -3 -25 -7z m20 -135 c-2 -24 -4 -5 -4 42 0 47 2 66 4 43 2
-24 2 -62 0 -85z"/>
</g>
</svg>
